<svg xmlns="http://www.w3.org/2000/svg" width="2283" height="512" viewBox="0 0 2283 512"><g fill="none"><path fill="#E8546A" d="M220.504 9.988L10.5 129.992v252.004L220.504 502l210.004-120.004V129.992z"/><path fill="#C42B4C" d="M350.508 333.996v2.711l-130.004 71.988-130-71.988V175.281l130-71.988 130.004 71.988z"/><path fill="#000" d="M130.504 291.996c-5.52 0-10 4.48-10 10s4.48 10 10 10 10-4.48 10-10-4.48-10-10-10z"/><path fill="#000" d="M435.504 121.332l-.035-.023-210.004-120a10.061 10.061 0 0 0-9.922 0l-210.004 120-.035.023C2.5 123.062.5 126.363.5 129.992v252.004c0 6.067 5.023 8.633 5.125 8.73L215.543 510.68l.066.035a10.177 10.177 0 0 0 4.895 1.285c1.633 0 3.371-.43 4.894-1.285l.067-.035s209.902-119.946 209.914-119.95c3.254-2.367 5.129-4.171 5.129-8.734V129.992c0-.047-.008-.094-.008-.14-.047-3.665-2.102-6.856-4.996-8.52zm-205-94.11l180.215 102.981-58.063 34.84-122.152-67.645V27.223zm-20 0v70.176L88.352 165.043l-58.063-34.84 180.215-102.98zM20.5 147.653l60.004 36.004v144.676L20.5 364.336V147.652zm190.004 337.114L30.289 381.786l58.066-34.84 122.149 67.644v70.176zm10-87.5l-120-66.454V181.177l120-66.453 120.004 66.453v149.637l-120.004 66.453zm10 87.5V414.59l122.152-67.645 58.063 34.84-180.215 102.98zm190.004-120.43l-60-36.004V183.656l60-36.004v216.684z"/><path fill="#000" d="M175.66 162.422l-50.004 27.691a10.003 10.003 0 0 0-5.152 8.75v63.13c0 5.523 4.476 10 10 10 5.52 0 10-4.477 10-10v-57.24l44.844-24.835c4.832-2.676 6.582-8.762 3.906-13.59-2.676-4.832-8.762-6.578-13.594-3.906z"/><path fill="#434C50" d="M653.311 372c29.222 0 50.896-13.942 58.25-35.242h3.677v33.5H794V92h-78.762v102.628h-3.677c-7.354-21.3-29.028-34.855-58.25-34.855-45.283 0-74.311 34.08-74.311 98.174v15.491c0 63.9 29.028 98.562 74.311 98.562zm34.092-59C671.66 313 660 299.654 660 271.61v-11.412C660 232.346 671.66 219 687.403 219 703.145 219 715 232.152 715 260.198v11.411C715 299.654 703.145 313 687.403 313zm247.388 61C1000.648 374 1039 336.8 1039 269.569v-10.463C1039 198.656 1000.648 157 934.79 157 868.547 157 830 199.238 830 259.688v10.268C830 336.8 868.546 374 934.79 374zm-.195-57c-21.108 0-24.47-25.01-24.592-43.178L910 257.045c0-20.567 3.843-44.045 24.596-44.045 20.56 0 24.404 23.09 24.404 44.045v15.716c0 18.627-3.075 44.239-24.404 44.239zm217.237 122V336.107h3.874c8.135 21.315 28.86 35.267 58.108 35.267 45.518 0 74.185-33.523 74.185-98.63v-15.502c0-65.3-28.667-98.242-74.185-98.242-29.247 0-49.973 13.564-58.108 34.879h-3.874v-33.135H1073V439h78.833zm27.667-126c-15.603 0-27.5-13.346-27.5-41.39v-11.412c0-28.046 11.897-41.198 27.5-41.198 16.188 0 27.5 13.346 27.5 41.198v11.411c0 28.045-11.312 41.391-27.5 41.391zm230.438 61c64.28 0 98.062-28.288 98.062-73.044 0-35.262-20.848-52.7-58.297-59.481-4.36-.79-9.073-1.46-13.856-2.134l-4.317-.611-2.877-.42c-18.66-2.769-36.28-6.555-36.28-18.729 0-6.975 5.79-14.143 18.917-14.143 13.898 0 20.268 8.137 21.812 17.05h67.177c0-45.144-37.835-65.488-88.217-65.488-49.61 0-93.236 19.762-93.236 69.556 0 39.913 28.183 57.156 63.315 64.519 22.778 4.844 50.575 5.425 50.575 20.15 0 7.362-6.756 13.95-19.496 13.95-13.706 0-22.778-7.556-23.55-17.631H1314c0 37.006 30.5 66.456 95.938 66.456zm231.066-4c15.437 0 27.4-1.162 32.996-1.936v-55.182c-1.93.193-8.49.387-14.279.387-15.244 0-24.699-6.196-24.699-20.718v-73.189H1674v-58.086h-38.978V115h-75.061v46.276H1526v58.086h31.645v90.615c0 45.114 27.787 60.023 83.359 60.023zm114.593-227c22.144 0 40.403-13.349 40.403-35.597C1796 85.35 1777.741 72 1755.597 72 1733.26 72 1715 85.349 1715 107.403c0 22.248 18.259 35.597 40.597 35.597zM1794 370V161h-78v209h78zm138.801 4c51.577 0 95.813-24.219 96.199-87.188h-69.348c-.387 14.92-5.023 28.87-23.567 28.87-16.42 0-26.078-15.888-26.078-46.307V257.75c0-25.769 10.431-42.238 25.885-42.238 14.101 0 23.373 13.175 23.76 29.45H2029c-.386-52.506-36.51-87.962-95.813-87.962C1869.441 157 1831 197.881 1831 257.944v12.4C1831 338.93 1872.145 374 1932.801 374zm209.606-4v-65.582l8.112-11.608 42.293 77.19H2283l-71.455-119.364 66.434-89.184h-86.712l-44.997 75.835h-3.863V92H2064v278h78.407z"/></g></svg>